<?xml version="1.0" standalone="no"?>
<!DOCTYPE svg PUBLIC "-//W3C//DTD SVG 20010904//EN"
 "http://www.w3.org/TR/2001/REC-SVG-20010904/DTD/svg10.dtd">
<svg version="1.0" xmlns="http://www.w3.org/2000/svg"
 width="500.000000pt" height="500.000000pt" viewBox="0 0 500.000000 500.000000"
 preserveAspectRatio="xMidYMid meet">

<g transform="translate(0.000000,500.000000) scale(0.100000,-0.100000)"
fill="#000000" stroke="none">
<path d="M2000 1561 c-8 -5 -35 -11 -58 -15 -87 -13 -170 -73 -247 -177 -76
-103 -81 -192 -14 -219 24 -11 37 -10 76 5 116 45 354 347 318 405 -7 12 -54
13 -75 1z m33 -63 c-27 -48 -252 -269 -301 -296 -36 -20 -43 -21 -48 -8 -10
26 55 141 121 212 66 72 92 83 50 21 -37 -54 -31 -54 28 -1 59 53 134 104 155
104 10 0 9 -7 -5 -32z"/>
<path d="M2154 1533 c-15 -21 -39 -54 -53 -73 -14 -19 -48 -59 -74 -89 -99
-108 -133 -191 -86 -206 31 -10 62 1 113 40 26 19 53 35 62 35 8 0 23 4 33 9
15 8 16 5 13 -25 -9 -74 33 -81 142 -25 l74 38 7 -33 c11 -60 66 -54 156 17
l35 28 -4 -30 c-10 -68 45 -75 129 -14 l49 35 0 -25 c0 -15 9 -31 24 -40 22
-15 27 -15 62 0 21 8 52 27 70 40 18 14 35 25 38 25 3 0 6 -15 6 -34 0 -57 49
-59 147 -5 62 34 63 34 56 10 -5 -21 21 -51 46 -51 10 0 37 15 61 33 53 39 56
41 105 62 40 16 111 72 102 81 -2 2 -15 -4 -28 -15 -30 -23 -102 -62 -106 -57
-2 2 4 19 13 39 46 96 -52 88 -161 -13 -42 -39 -113 -77 -157 -85 -34 -7 -38
-5 -38 14 0 25 62 96 101 117 44 22 57 16 25 -12 -32 -28 -30 -38 7 -29 31 8
72 50 62 64 -18 30 -116 3 -195 -54 -25 -18 -54 -37 -66 -43 -20 -11 -21 -10
-7 44 27 103 2 109 -100 25 -84 -68 -167 -121 -191 -121 -15 0 -15 2 0 33 9
17 30 48 45 67 16 19 29 38 29 42 0 18 -38 6 -61 -18 -34 -38 -168 -124 -191
-124 -14 0 -19 6 -16 22 2 15 34 46 93 90 97 73 185 160 185 184 0 66 -187
-47 -264 -159 -41 -60 -103 -106 -175 -132 -57 -20 -71 -19 -71 4 0 24 14 33
52 37 30 2 93 45 112 78 9 14 7 20 -9 32 -31 23 -60 12 -174 -71 -47 -34 -56
-31 -31 10 17 27 19 38 10 55 -13 24 -29 25 -75 6 -19 -8 -35 -11 -35 -5 0 5
4 9 8 9 15 0 153 132 167 160 16 31 12 40 -21 40 -15 0 -33 -13 -50 -37z m490
-68 c-16 -25 -137 -135 -149 -135 -15 0 41 64 97 110 32 28 61 50 64 50 2 0
-3 -11 -12 -25z m-514 -122 c0 -17 -83 -113 -114 -133 -52 -32 -61 -21 -27 32
40 62 141 135 141 101z m200 -2 c0 -12 -66 -61 -82 -61 -7 1 5 16 26 35 39 35
56 43 56 26z m536 -55 c-8 -34 -45 -76 -66 -76 -9 0 -24 7 -31 16 -12 15 -7
23 41 65 56 50 70 48 56 -5z m464 46 c0 -4 -7 -18 -16 -31 -12 -16 -19 -20
-27 -12 -7 7 -5 17 8 31 18 20 35 26 35 12z m-63 -61 c11 -17 8 -24 -23 -51
-43 -37 -60 -31 -38 13 31 61 42 68 61 38z"/>
<path d="M2727 1442 c-17 -18 -23 -42 -11 -42 10 0 49 23 56 34 18 28 -21 35
-45 8z"/>
<path d="M1120 915 c0 -8 7 -15 15 -15 12 0 15 -16 15 -85 0 -69 -3 -85 -15
-85 -8 0 -15 -9 -15 -21 0 -18 5 -20 52 -17 41 2 54 7 56 21 2 12 -3 17 -17
17 -16 0 -21 6 -21 25 0 39 29 44 56 9 43 -55 63 -74 79 -74 22 0 18 25 -9 55
-45 49 -45 49 -20 72 32 29 31 66 -2 92 -22 17 -41 21 -100 21 -59 0 -74 -3
-74 -15z m148 -52 c3 -17 -4 -26 -24 -33 -38 -15 -54 -6 -54 30 0 30 2 31 38
28 30 -2 38 -7 40 -25z"/>
<path d="M1400 915 c0 -8 7 -15 15 -15 12 0 15 -16 15 -85 0 -71 -3 -85 -16
-85 -9 0 -14 -7 -12 -17 3 -16 17 -18 106 -21 l102 -3 0 46 c0 38 -3 45 -20
45 -15 0 -20 -7 -20 -25 0 -23 -4 -25 -45 -25 -45 0 -45 0 -45 35 0 32 2 35
30 35 20 0 30 5 30 15 0 10 -10 15 -30 15 -27 0 -30 3 -30 30 0 29 2 30 45 30
38 0 45 -3 45 -20 0 -13 7 -20 20 -20 17 0 20 7 20 40 l0 40 -105 0 c-87 0
-105 -3 -105 -15z"/>
<path d="M1707 924 c-14 -14 -7 -24 18 -24 14 0 25 -3 25 -7 0 -5 -12 -43 -26
-85 -16 -49 -31 -78 -40 -78 -8 0 -14 -9 -14 -20 0 -17 7 -20 50 -20 43 0 50
3 50 20 0 11 -7 20 -15 20 -13 0 -14 4 -5 21 15 26 83 24 88 -3 2 -11 -3 -18
-13 -18 -10 0 -15 -7 -13 -17 5 -25 101 -26 106 -1 2 9 -4 18 -14 20 -13 2
-27 31 -48 98 l-31 95 -55 3 c-31 2 -59 0 -63 -4z m108 -91 c6 -32 5 -33 -24
-33 -33 0 -32 -7 -4 80 4 13 5 13 13 0 4 -8 11 -30 15 -47z"/>
<path d="M1970 916 c0 -7 9 -16 20 -19 18 -5 20 -14 20 -86 0 -74 -2 -81 -20
-81 -13 0 -20 -7 -20 -20 0 -20 5 -21 103 -18 l102 3 0 55 c0 48 -2 55 -20 55
-16 0 -21 -8 -23 -37 -3 -37 -4 -38 -43 -38 l-40 0 3 83 c3 81 3 82 31 85 15
2 27 9 27 18 0 11 -16 14 -70 14 -53 0 -70 -3 -70 -14z"/>
<path d="M2570 910 c-44 -44 -13 -103 58 -115 46 -7 65 -25 56 -49 -10 -26
-66 -21 -94 9 -29 31 -40 24 -40 -26 0 -32 3 -39 20 -39 11 0 20 5 20 10 0 7
6 7 19 0 28 -15 73 -12 99 6 16 11 22 25 22 53 0 43 -20 66 -65 76 -59 13 -65
17 -65 36 0 29 27 34 68 13 21 -10 40 -20 45 -22 4 -2 7 12 7 31 l0 34 -65 1
c-53 1 -70 -3 -85 -18z"/>
<path d="M2820 880 c0 -43 3 -50 20 -50 16 0 20 7 20 30 0 23 4 30 20 30 18 0
20 -7 20 -79 0 -79 0 -80 -27 -83 -17 -2 -28 -9 -28 -18 0 -12 17 -16 78 -18
72 -3 77 -1 77 18 0 15 -6 20 -25 20 -25 0 -25 1 -25 80 0 73 2 80 20 80 15 0
20 -7 20 -29 0 -33 10 -44 29 -32 8 5 11 24 9 52 l-3 44 -102 3 -103 3 0 -51z"/>
<path d="M3120 915 c0 -8 9 -15 20 -15 25 0 25 -8 -2 -93 -15 -47 -29 -72 -41
-75 -10 -2 -17 -12 -15 -21 2 -11 16 -17 51 -19 41 -3 47 -1 47 17 0 10 -5 21
-12 23 -6 2 -9 12 -5 21 4 12 18 17 42 17 24 0 38 -5 42 -17 4 -9 1 -19 -5
-21 -7 -2 -12 -12 -12 -23 0 -16 7 -19 50 -19 43 0 50 3 50 20 0 11 -6 20 -14
20 -10 0 -26 35 -47 100 l-33 100 -58 0 c-45 0 -58 -3 -58 -15z m110 -97 c0
-13 -8 -18 -25 -18 -28 0 -31 11 -13 61 l12 34 12 -30 c7 -17 13 -38 14 -47z"/>
<path d="M3392 878 c3 -58 21 -72 26 -20 3 26 7 32 28 32 23 0 24 -2 24 -80
l0 -80 -31 0 c-24 0 -30 -4 -27 -17 3 -15 16 -18 81 -21 72 -3 77 -1 77 18 0
16 -6 20 -30 20 l-30 0 0 80 c0 78 1 80 24 80 21 0 25 -6 28 -32 5 -50 23 -35
26 22 l3 50 -101 0 -101 0 3 -52z"/>
<path d="M3667 923 c-12 -11 -8 -21 13 -26 18 -5 20 -14 20 -85 0 -73 -2 -80
-21 -85 -12 -3 -19 -12 -17 -19 3 -9 33 -14 106 -16 l102 -3 0 46 c0 38 -3 45
-20 45 -15 0 -20 -7 -20 -25 0 -23 -4 -25 -45 -25 -45 0 -45 0 -45 35 0 32 2
35 30 35 20 0 30 5 30 15 0 10 -10 15 -30 15 -27 0 -30 3 -30 30 0 29 2 30 45
30 38 0 45 -3 45 -20 0 -13 7 -20 20 -20 17 0 20 7 20 40 l0 40 -98 0 c-54 0
-102 -3 -105 -7z"/>
</g>
</svg>
